<svg width="420" height="420" viewBox="0 0 420 420" fill="none" xmlns="http://www.w3.org/2000/svg">
<path fill-rule="evenodd" clip-rule="evenodd" d="M321.561 239.895C305.051 301.51 241.718 338.076 180.103 321.566C159.754 316.113 142.176 305.579 128.322 291.699L121.779 285.157L172.877 285.147C181.576 285.146 188.626 278.093 188.624 269.395C188.623 260.696 181.57 253.646 172.871 253.647L83.7593 253.663C79.5821 253.664 75.5763 255.324 72.6231 258.279C69.6699 261.233 68.0113 265.24 68.0122 269.417L68.0309 358.495C68.0327 367.194 75.0857 374.244 83.7842 374.242C92.4827 374.24 99.5327 367.187 99.5309 358.489L99.5202 307.445L106.027 313.952C123.689 331.645 146.11 345.069 171.95 351.993C250.37 373.005 330.975 326.467 351.988 248.048C354.239 239.646 349.253 231.009 340.851 228.758C332.449 226.507 323.812 231.493 321.561 239.895ZM347.368 161.725C350.322 158.771 351.981 154.764 351.981 150.586L351.966 61.5055C351.965 52.807 344.912 45.7566 336.213 45.7581C327.515 45.7595 320.465 52.8122 320.466 61.5106L320.474 112.559L313.968 106.053C296.307 88.362 273.881 74.9336 248.043 68.0104C169.624 46.9979 89.018 93.5356 68.0055 171.955C65.7542 180.357 70.7404 188.993 79.1424 191.245C87.5445 193.496 96.1808 188.51 98.4322 180.108C114.942 118.493 178.275 81.9273 239.89 98.437C260.24 103.89 277.819 114.425 291.673 128.306L298.207 134.839L247.135 134.839C238.437 134.839 231.385 141.89 231.385 150.589C231.385 159.287 238.437 166.339 247.135 166.339H336.231C340.408 166.339 344.415 164.679 347.368 161.725Z" fill="#74777C"/>
</svg>
