<svg width="420" height="420" viewBox="0 0 420 420" fill="none" xmlns="http://www.w3.org/2000/svg">
<path fill-rule="evenodd" clip-rule="evenodd" d="M210 42C302.784 42 378 117.216 378 210C378 302.784 302.784 378 210 378C117.216 378 42 302.784 42 210C42 117.216 117.216 42 210 42ZM225.75 278.25C225.75 286.948 218.698 294 210 294C201.302 294 194.25 286.948 194.25 278.25L194.25 181.858L153.291 225.967C147.373 232.341 137.407 232.71 131.033 226.792C124.659 220.873 124.29 210.907 130.208 204.533L198.458 131.033C201.439 127.824 205.62 126 210 126C214.38 126 218.561 127.824 221.541 131.033L289.791 204.533C295.71 210.907 295.341 220.873 288.967 226.792C282.593 232.71 272.627 232.341 266.708 225.967L225.75 181.858L225.75 278.25Z" fill="#74777C"/>
<style>
path {
    fill: #FFFFFF;
}
</style>
</svg>
