<svg width="420" height="420" viewBox="0 0 420 420" fill="none" xmlns="http://www.w3.org/2000/svg">
<path fill-rule="evenodd" clip-rule="evenodd" d="M209.999 378C254.555 378 297.287 360.3 328.793 328.794C360.299 297.288 377.999 254.556 377.999 210C377.999 165.444 360.299 122.712 328.793 91.2061C297.287 59.7 254.555 42 209.999 42C165.443 42 122.711 59.7 91.2051 91.2061C59.699 122.712 41.999 165.444 41.999 210C41.999 254.556 59.699 297.288 91.2051 328.794C122.711 360.3 165.443 378 209.999 378V378ZM290.996 172.011C292.212 170.337 293.087 168.44 293.57 166.428C294.053 164.416 294.135 162.329 293.811 160.285C293.487 158.241 292.764 156.282 291.683 154.517C290.602 152.753 289.184 151.219 287.51 150.003C285.836 148.787 283.939 147.912 281.927 147.429C279.915 146.946 277.828 146.864 275.784 147.188C273.74 147.512 271.781 148.235 270.016 149.316C268.252 150.397 266.718 151.815 265.502 153.489L192.359 254.079L152.879 214.599C151.425 213.095 149.687 211.896 147.765 211.072C145.843 210.247 143.776 209.814 141.685 209.797C139.594 209.779 137.52 210.179 135.585 210.972C133.649 211.765 131.891 212.935 130.413 214.414C128.935 215.894 127.767 217.653 126.976 219.589C126.184 221.525 125.787 223.599 125.806 225.69C125.825 227.782 126.261 229.848 127.087 231.769C127.913 233.69 129.114 235.428 130.619 236.88L183.119 289.38C184.728 290.99 186.667 292.232 188.803 293.021C190.938 293.809 193.219 294.126 195.488 293.948C197.758 293.771 199.962 293.103 201.948 291.992C203.935 290.881 205.657 289.352 206.996 287.511L290.996 172.011Z" fill="#74777C"/>
</svg>
