<svg width="420" height="420" viewBox="0 0 420 420" fill="none" xmlns="http://www.w3.org/2000/svg">
<path fill-rule="evenodd" clip-rule="evenodd" d="M210 39.375C115.766 39.375 39.375 115.766 39.375 210C39.375 304.234 115.766 380.625 210 380.625C304.234 380.625 380.625 304.234 380.625 210C380.625 115.766 304.234 39.375 210 39.375ZM223.125 105C223.125 97.7513 217.249 91.875 210 91.875C202.751 91.875 196.875 97.7513 196.875 105V210C196.875 217.249 202.751 223.125 210 223.125H288.75C295.999 223.125 301.875 217.249 301.875 210C301.875 202.751 295.999 196.875 288.75 196.875H223.125V105Z" fill="#74777C"/>
</svg>
