<svg width="420" height="420" viewBox="0 0 420 420" fill="none" xmlns="http://www.w3.org/2000/svg">
<path fill-rule="evenodd" clip-rule="evenodd" d="M193.865 39.375C177.817 39.375 164.132 50.9775 161.49 66.7975L158.375 85.5575C158.025 87.6575 156.362 90.1075 153.177 91.6475C147.181 94.5299 141.413 97.8646 135.922 101.623C133.017 103.635 130.077 103.827 128.047 103.075L110.25 96.39C102.974 93.6642 94.9672 93.6086 87.6542 96.2332C80.3413 98.8577 74.197 103.992 70.315 110.723L54.18 138.67C50.2965 145.396 48.925 153.282 50.3093 160.925C51.6936 168.567 55.744 175.471 61.74 180.408L76.44 192.518C78.1025 193.883 79.415 196.525 79.135 200.042C78.6362 206.677 78.6362 213.34 79.135 219.975C79.3975 223.475 78.1025 226.135 76.4575 227.5L61.74 239.61C55.744 244.547 51.6936 251.45 50.3093 259.093C48.925 266.735 50.2965 274.621 54.18 281.347L70.315 309.295C74.1997 316.022 80.3452 321.153 87.6579 323.774C94.9706 326.396 102.976 326.337 110.25 323.61L128.082 316.925C130.095 316.173 133.035 316.382 135.957 318.36C141.417 322.105 147.175 325.447 153.195 328.335C156.38 329.875 158.042 332.325 158.392 334.46L161.507 353.203C164.15 369.023 177.835 380.625 193.882 380.625H226.152C242.182 380.625 255.885 369.023 258.527 353.203L261.642 334.443C261.992 332.343 263.637 329.892 266.84 328.335C272.86 325.447 278.617 322.105 284.077 318.36C287 316.365 289.94 316.173 291.952 316.925L309.802 323.61C317.074 326.326 325.073 326.377 332.378 323.753C339.683 321.129 345.822 316 349.702 309.278L365.855 281.33C369.738 274.604 371.11 266.718 369.726 259.075C368.341 251.433 364.291 244.529 358.295 239.592L343.595 227.482C341.932 226.117 340.62 223.475 340.9 219.958C341.398 213.323 341.398 206.66 340.9 200.025C340.62 196.525 341.932 193.865 343.577 192.5L358.277 180.39C370.667 170.205 373.87 152.565 365.855 138.652L349.72 110.705C345.835 103.978 339.69 98.847 332.377 96.2257C325.064 93.6045 317.059 93.6627 309.785 96.39L291.935 103.075C289.94 103.827 287 103.618 284.077 101.623C278.593 97.8652 272.83 94.5305 266.84 91.6475C263.637 90.125 261.992 87.675 261.642 85.5575L258.51 66.7975C257.234 59.1336 253.279 52.1713 247.351 47.1497C241.422 42.1281 233.904 39.3731 226.135 39.375H193.882H193.865ZM210 275.625C227.405 275.625 244.097 268.711 256.404 256.404C268.711 244.097 275.625 227.405 275.625 210C275.625 192.595 268.711 175.903 256.404 163.596C244.097 151.289 227.405 144.375 210 144.375C192.595 144.375 175.903 151.289 163.596 163.596C151.289 175.903 144.375 192.595 144.375 210C144.375 227.405 151.289 244.097 163.596 256.404C175.903 268.711 192.595 275.625 210 275.625V275.625Z" fill="#74777C"/>
</svg>
