<svg width="420" height="420" viewBox="0 0 420 420" fill="none" xmlns="http://www.w3.org/2000/svg">
<path d="M200.719 67.2178C205.845 62.0921 214.155 62.0921 219.281 67.2177L371.344 219.281C376.47 224.407 384.78 224.407 389.906 219.281C395.031 214.156 395.031 205.845 389.906 200.72L237.842 48.6562C222.465 33.2793 197.535 33.2793 182.158 48.6562L30.0942 200.72C24.9686 205.845 24.9686 214.156 30.0942 219.281C35.2199 224.407 43.5301 224.407 48.6558 219.281L200.719 67.2178Z" fill="#74777C"/>
<path d="M210 95.0601L352.783 237.843C353.303 238.363 353.834 238.865 354.375 239.35V347.813C354.375 365.935 339.684 380.625 321.562 380.625H262.5C255.251 380.625 249.375 374.749 249.375 367.5V288.75C249.375 281.502 243.499 275.625 236.25 275.625H183.75C176.501 275.625 170.625 281.502 170.625 288.75V367.5C170.625 374.749 164.749 380.625 157.5 380.625H98.4375C80.3157 380.625 65.625 365.935 65.625 347.813V239.35C66.1662 238.865 66.6972 238.363 67.2173 237.843L210 95.0601Z" fill="#74777C"/>
</svg>
