<svg width="20" height="20" viewBox="0 0 20 20" fill="none" xmlns="http://www.w3.org/2000/svg">
<path fill-rule="evenodd" clip-rule="evenodd" d="M9.078 0.25C8.161 0.25 7.379 0.913 7.228 1.817L7.05 2.889C7.03 3.009 6.935 3.149 6.753 3.237C6.41034 3.40171 6.08073 3.59226 5.767 3.807C5.601 3.922 5.433 3.933 5.317 3.89L4.3 3.508C3.88424 3.35224 3.42669 3.34906 3.00881 3.49904C2.59093 3.64901 2.23982 3.94241 2.018 4.327L1.096 5.924C0.874085 6.30836 0.79571 6.75897 0.874813 7.19569C0.953916 7.6324 1.18537 8.0269 1.528 8.309L2.368 9.001C2.463 9.079 2.538 9.23 2.522 9.431C2.4935 9.81013 2.4935 10.1909 2.522 10.57C2.537 10.77 2.463 10.922 2.369 11L1.528 11.692C1.18537 11.9741 0.953916 12.3686 0.874813 12.8053C0.79571 13.242 0.874085 13.6926 1.096 14.077L2.018 15.674C2.23998 16.0584 2.59115 16.3516 3.00902 16.5014C3.42689 16.6512 3.88435 16.6478 4.3 16.492L5.319 16.11C5.434 16.067 5.602 16.079 5.769 16.192C6.081 16.406 6.41 16.597 6.754 16.762C6.936 16.85 7.031 16.99 7.051 17.112L7.229 18.183C7.38 19.087 8.162 19.75 9.079 19.75H10.923C11.839 19.75 12.622 19.087 12.773 18.183L12.951 17.111C12.971 16.991 13.065 16.851 13.248 16.762C13.592 16.597 13.921 16.406 14.233 16.192C14.4 16.078 14.568 16.067 14.683 16.11L15.703 16.492C16.1185 16.6472 16.5756 16.6501 16.993 16.5002C17.4105 16.3502 17.7612 16.0571 17.983 15.673L18.906 14.076C19.1279 13.6916 19.2063 13.241 19.1272 12.8043C19.0481 12.3676 18.8166 11.9731 18.474 11.691L17.634 10.999C17.539 10.921 17.464 10.77 17.48 10.569C17.5084 10.1899 17.5084 9.80913 17.48 9.43C17.464 9.23 17.539 9.078 17.633 9L18.473 8.308C19.181 7.726 19.364 6.718 18.906 5.923L17.984 4.326C17.762 3.94159 17.4108 3.6484 16.993 3.49861C16.5751 3.34883 16.1176 3.35215 15.702 3.508L14.682 3.89C14.568 3.933 14.4 3.921 14.233 3.807C13.9196 3.5923 13.5903 3.40175 13.248 3.237C13.065 3.15 12.971 3.01 12.951 2.889L12.772 1.817C12.6991 1.37906 12.4731 0.981216 12.1343 0.694267C11.7956 0.407318 11.366 0.249889 10.922 0.25H9.079H9.078ZM10 13.75C10.9946 13.75 11.9484 13.3549 12.6516 12.6517C13.3549 11.9484 13.75 10.9946 13.75 10C13.75 9.00544 13.3549 8.05161 12.6516 7.34835C11.9484 6.64509 10.9946 6.25 10 6.25C9.00543 6.25 8.05161 6.64509 7.34835 7.34835C6.64508 8.05161 6.25 9.00544 6.25 10C6.25 10.9946 6.64508 11.9484 7.34835 12.6517C8.05161 13.3549 9.00543 13.75 10 13.75Z" fill="#74777C"/>
</svg>
